<svg xmlns="http://www.w3.org/2000/svg" xmlns:xlink="http://www.w3.org/1999/xlink" viewBox="0 0 510.08 152.13"><defs><style>.cls-1{fill:url(#linear-gradient);}.cls-2{fill:url(#linear-gradient-2);}.cls-3{fill:url(#linear-gradient-3);}.cls-4{fill:url(#linear-gradient-4);}.cls-5{fill:url(#linear-gradient-5);}.cls-6{fill:#cc5373;}.cls-7{fill:#332591;}</style><linearGradient id="linear-gradient" x1="104.51" y1="-21.65" x2="26.95" y2="134.71" gradientUnits="userSpaceOnUse"><stop offset="0" stop-color="#332591"/><stop offset="1" stop-color="#fc626a"/></linearGradient><linearGradient id="linear-gradient-2" x1="138" y1="31.28" x2="88.24" y2="114.67" xlink:href="#linear-gradient"/><linearGradient id="linear-gradient-3" x1="40.52" y1="21.1" x2="-7.4" y2="149.17" xlink:href="#linear-gradient"/><linearGradient id="linear-gradient-4" x1="100.58" y1="22.41" x2="46.01" y2="209.76" xlink:href="#linear-gradient"/><linearGradient id="linear-gradient-5" x1="120.81" y1="66.28" x2="118.35" y2="143.84" xlink:href="#linear-gradient"/></defs><title>logoColored</title><g id="Layer_2" data-name="Layer 2"><g id="Layer_1-2" data-name="Layer 1"><path class="cls-1" d="M77.44,85.93l-26.17,51S45,80.08,36.47,62.54A112.65,112.65,0,0,1,54.71,35l7.58,17.22Z" transform="translate(0 -6.11)"/><path class="cls-2" d="M96.72,110s7.21-10.85,4.64-34.69l10.11-7.25s5.45,1.86,6.37,14.33Z" transform="translate(0 -6.11)"/><path class="cls-3" d="M36.47,62.54c-20.54,42.79-19.64,95.7-19.64,95.7-37.87-73,0-146,0-146L54.71,35A112.65,112.65,0,0,0,36.47,62.54Z" transform="translate(0 -6.11)"/><path class="cls-4" d="M70.13,62.08C60,75.22,46.9,100,51.27,137.58l26.86-16.53s.69-37.19,34.43-52.34L92.74,57.51A17.62,17.62,0,0,0,70.13,62.08Z" transform="translate(0 -6.11)"/><path class="cls-5" d="M96.72,110l18.6-10.33s6.88-14.46,27.54-13.08C142.86,86.62,115.32,62.51,96.72,110Z" transform="translate(0 -6.11)"/><path class="cls-6" d="M175.12,30.78c0-2.76,0-5.52-.07-8.28h3.67a44.16,44.16,0,0,1,.13,5.36,11.45,11.45,0,0,1,10.71-6.26c5.08,0,8.47,2.57,9.94,6.65,1.74-3,4.75-6.65,11.17-6.65,6.11,0,11.19,3.48,11.19,12.92V54.6h-3.74V34.71c0-4.26-1.34-9.61-7.9-9.61-5.92,0-9.86,4.13-9.86,12V54.6h-3.74V34.34c0-4.22-1.41-9.24-8-9.24-7.13,0-9.8,5.71-9.8,12.66V54.6h-3.74Z" transform="translate(0 -6.11)"/><path class="cls-6" d="M234.22,39.36c.39,7.43,5.28,12.77,12.74,12.77,5.67,0,9-2.54,11-6.28h3.74c-1.61,4.27-6,9.65-15.2,9.65-10.58,0-16.09-8.23-16.09-16.82,0-10.06,6.66-17.08,15.9-17.08,12,0,15.9,9.11,15.9,16.64v1.12Zm23.94-3.22c-.32-4.57-2.73-11.18-11.9-11.18-7.27,0-11.21,4.77-11.91,11.18Z" transform="translate(0 -6.11)"/><path class="cls-6" d="M300.32,6.11v39c0,3.14,0,6.35.06,9.49h-3.55a51.61,51.61,0,0,1-.26-5.54C295,51.94,292,55.5,284.16,55.5c-9.5,0-15.54-7.11-15.54-16.69,0-10.41,7.59-17.21,16.18-17.21,8.24,0,10.87,4.13,11.77,5.85V6.11ZM272.49,38.74c0,6.39,4,13.32,12,13.32,9,0,12.36-5.73,12.36-13.7S294.14,25,284.79,25C276.5,25,272.49,31.92,272.49,38.74Z" transform="translate(0 -6.11)"/><path class="cls-6" d="M311.88,6.11h3.74v6.77h-3.74Zm0,16.39h3.74V54.6h-3.74Z" transform="translate(0 -6.11)"/><path class="cls-6" d="M352.93,47.25c0,2.54.19,6.58.32,7.35h-3.61a40.38,40.38,0,0,1-.38-5.29C347.59,53,344,55.5,336.76,55.5c-9.23,0-12.45-5.58-12.45-10.21,0-8.1,7.51-10.35,16.51-10.35h8.43v-2.1c0-4-1.72-8-9.73-8-7.13,0-8.85,3.3-9.61,6.86h-3.74c.44-4.42,3.33-10.15,13.41-10.15,10.42,0,13.35,5.23,13.35,10.5ZM349.25,38H341c-8.59,0-12.84,1.79-12.84,7.06,0,3.81,2.73,7,9,7,10.17,0,12.17-6.34,12.17-12.21Z" transform="translate(0 -6.11)"/><path class="cls-7" d="M219.74,64.54V121.1c0,4.55,0,9.2.09,13.76h-5.15a73.81,73.81,0,0,1-.37-8c-2.25,4.18-6.6,9.34-18,9.34-13.76,0-22.54-10.32-22.54-24.2,0-15.1,11-25,23.48-25,11.95,0,15.76,6,17.07,8.48V64.54Zm-40.36,47.32c0,9.26,5.74,19.31,17.38,19.31,13,0,17.92-8.3,17.92-19.86S210.78,92,197.22,92C185.2,92,179.38,102,179.38,111.86Z" transform="translate(0 -6.11)"/><path class="cls-7" d="M247,112.75c.55,10.78,7.65,18.53,18.46,18.53,8.23,0,13-3.68,16-9.12h5.43c-2.34,6.19-8.69,14-22,14-15.36,0-23.34-11.93-23.34-24.39,0-14.59,9.67-24.77,23.06-24.77,17.43,0,23.06,13.21,23.06,24.13v1.62Zm34.71-4.66c-.46-6.63-4-16.22-17.26-16.22-10.55,0-16.25,6.93-17.26,16.22Z" transform="translate(0 -6.11)"/><path class="cls-7" d="M310.82,120.89c1.94,6.72,7.56,10.5,17.17,10.5,10.43,0,14.38-3.78,14.38-9,0-4.61-2.5-8-15.73-9.49-15.6-1.78-19-7-19-12.89,0-5.44,4.49-13,18.68-13,15.94,0,19.8,8.64,20.18,13.61h-5.6c-.75-3.14-2.79-8.84-15-8.84-10.32,0-12.62,4.6-12.62,7.82,0,4.32,2.58,6.9,14.34,8.38,16.72,2.07,20.41,7,20.41,14.1,0,8.29-6.33,14.09-20.28,14.09s-20.8-5.94-22.48-15.27Z" transform="translate(0 -6.11)"/><path class="cls-7" d="M370,64.54h5.43v9.82H370Zm0,23.76h5.43v46.56H370Z" transform="translate(0 -6.11)"/><path class="cls-7" d="M443.06,128.28c0,17.95-4.9,28.71-23.82,28.71-16.94,0-20.75-10-21.68-15.66h5.61c1.57,5.71,5.45,10.78,16.36,10.78,15.87,0,18.2-10.24,18.2-23.71v-2.87c-2.88,6.37-8.61,10.25-18.65,10.25-12.95,0-22.07-10.16-22.07-23.64C397,97,408.07,87,420.2,87c11.15,0,16,5.37,17.53,9.52,0-2.58.09-6.83.28-8.22h5.14c-.09,4.47-.09,9-.09,13.42Zm-40.44-16.42c0,11.16,7.56,18.76,17.56,18.76,11,0,17.74-6.93,17.74-19.32,0-12.64-6.46-19.22-17.19-19.22C408.18,92.08,402.62,102.4,402.62,111.86Z" transform="translate(0 -6.11)"/><path class="cls-7" d="M469.12,100c0-3.92,0-8.2-.09-11.74h5.24c.18,1.76.28,6.19.28,10.06,2-5.17,7.15-11.36,17.64-11.36s17.89,6.53,17.89,19.73v28.13h-5.43v-27c0-9-3.42-15.79-13.21-15.79-11.26,0-16.89,8.85-16.89,21v21.82h-5.43Z" transform="translate(0 -6.11)"/></g></g></svg>