<svg xmlns="http://www.w3.org/2000/svg" viewBox="0 0 504.37 151.4"><defs><style>.cls-1{fill:#6e6e6e;}.cls-2{fill:#fff;}.cls-3{fill:#c9c9c9;}</style></defs><title>Asset 1</title><g id="Layer_2" data-name="Layer 2"><g id="Layer_1-2" data-name="Layer 1"><path class="cls-1" d="M76.67,85.92,50.76,136.38S44.55,80.13,36.11,62.76a111.35,111.35,0,0,1,18.06-27.3l7.5,17Z" transform="translate(0 -6.11)"/><path class="cls-1" d="M95.76,109.78S102.9,99,100.35,75.43l10-7.17s5.4,1.85,6.31,14.18Z" transform="translate(0 -6.11)"/><path class="cls-2" d="M36.11,62.76c-20.34,42.37-19.44,94.75-19.44,94.75-37.5-72.27,0-144.55,0-144.55l37.5,22.5A111.35,111.35,0,0,0,36.11,62.76Z" transform="translate(0 -6.11)"/><path class="cls-2" d="M69.43,62.31c-10.05,13-23,37.57-18.67,74.75l26.59-16.37S78,83.87,111.44,68.87L91.82,57.78A17.45,17.45,0,0,0,69.43,62.31Z" transform="translate(0 -6.11)"/><path class="cls-2" d="M95.76,109.78l18.41-10.22s6.82-14.32,27.27-13C141.44,86.6,114.17,62.74,95.76,109.78Z" transform="translate(0 -6.11)"/><path class="cls-3" d="M169.41,30.78c0-2.76,0-5.52-.07-8.28H173a46,46,0,0,1,.14,5.36,11.42,11.42,0,0,1,10.7-6.26c5.08,0,8.47,2.57,9.94,6.65,1.74-3,4.75-6.65,11.17-6.65,6.11,0,11.19,3.48,11.19,12.92V54.6h-3.74V34.71c0-4.26-1.34-9.61-7.9-9.61-5.92,0-9.86,4.13-9.86,12V54.6h-3.74V34.34c0-4.22-1.41-9.24-8-9.24-7.13,0-9.8,5.71-9.8,12.66V54.6h-3.74Z" transform="translate(0 -6.11)"/><path class="cls-3" d="M228.52,39.36c.38,7.43,5.27,12.77,12.73,12.77,5.67,0,9-2.54,11-6.28H256c-1.61,4.27-6,9.65-15.2,9.65-10.58,0-16.09-8.23-16.09-16.82,0-10.06,6.67-17.08,15.9-17.08,12,0,15.9,9.11,15.9,16.64v1.12Zm23.93-3.22c-.32-4.57-2.73-11.18-11.9-11.18-7.27,0-11.21,4.77-11.91,11.18Z" transform="translate(0 -6.11)"/><path class="cls-3" d="M294.61,6.11v39c0,3.14,0,6.35.06,9.49h-3.55a51.61,51.61,0,0,1-.26-5.54c-1.54,2.88-4.54,6.44-12.41,6.44-9.49,0-15.54-7.11-15.54-16.69,0-10.41,7.6-17.21,16.18-17.21,8.24,0,10.87,4.13,11.77,5.85V6.11ZM266.78,38.74c0,6.39,4,13.32,12,13.32,9,0,12.36-5.73,12.36-13.7S288.43,25,279.08,25C270.8,25,266.78,31.92,266.78,38.74Z" transform="translate(0 -6.11)"/><path class="cls-3" d="M306.17,6.11h3.74v6.77h-3.74Zm0,16.39h3.74V54.6h-3.74Z" transform="translate(0 -6.11)"/><path class="cls-3" d="M347.22,47.25c0,2.54.19,6.58.32,7.35h-3.6a38.8,38.8,0,0,1-.39-5.29c-1.67,3.64-5.27,6.19-12.5,6.19-9.23,0-12.45-5.58-12.45-10.21,0-8.1,7.51-10.35,16.51-10.35h8.44v-2.1c0-4-1.72-8-9.74-8-7.13,0-8.84,3.3-9.61,6.86h-3.74c.45-4.42,3.33-10.15,13.41-10.15,10.42,0,13.35,5.23,13.35,10.5ZM343.55,38h-8.31c-8.59,0-12.84,1.79-12.84,7.06,0,3.81,2.73,7,9,7,10.17,0,12.18-6.34,12.18-12.21Z" transform="translate(0 -6.11)"/><path class="cls-2" d="M214,64.54V121.1c0,4.55,0,9.2.09,13.76H209a73.81,73.81,0,0,1-.37-8c-2.24,4.18-6.6,9.34-18,9.34-13.76,0-22.54-10.32-22.54-24.2,0-15.1,11-25,23.48-25,11.95,0,15.76,6,17.07,8.48V64.54Zm-40.36,47.32c0,9.26,5.74,19.31,17.38,19.31,13,0,17.92-8.3,17.92-19.86S205.08,92,191.51,92C179.49,92,173.67,102,173.67,111.86Z" transform="translate(0 -6.11)"/><path class="cls-2" d="M241.26,112.75c.55,10.78,7.66,18.53,18.46,18.53,8.23,0,13-3.68,16-9.12h5.43c-2.34,6.19-8.69,14-22,14-15.35,0-23.34-11.93-23.34-24.39,0-14.59,9.67-24.77,23.07-24.77,17.42,0,23.05,13.21,23.05,24.13v1.62ZM276,108.09c-.46-6.63-4-16.22-17.26-16.22-10.55,0-16.25,6.93-17.26,16.22Z" transform="translate(0 -6.11)"/><path class="cls-2" d="M305.11,120.89c1.94,6.72,7.56,10.5,17.17,10.5,10.43,0,14.38-3.78,14.38-9,0-4.61-2.5-8-15.73-9.49-15.6-1.78-19-7-19-12.89,0-5.44,4.49-13,18.69-13,15.93,0,19.79,8.64,20.17,13.61h-5.6c-.75-3.14-2.79-8.84-15-8.84-10.32,0-12.62,4.6-12.62,7.82,0,4.32,2.58,6.9,14.34,8.38,16.72,2.07,20.41,7,20.41,14.1,0,8.29-6.33,14.09-20.28,14.09s-20.8-5.94-22.48-15.27Z" transform="translate(0 -6.11)"/><path class="cls-2" d="M364.24,64.54h5.43v9.82h-5.43Zm0,23.76h5.43v46.56h-5.43Z" transform="translate(0 -6.11)"/><path class="cls-2" d="M437.35,128.28c0,17.95-4.9,28.71-23.82,28.71-16.94,0-20.75-10-21.68-15.66h5.61c1.58,5.71,5.46,10.78,16.36,10.78,15.87,0,18.2-10.24,18.2-23.71v-2.87c-2.88,6.37-8.61,10.25-18.64,10.25-13,0-22.08-10.16-22.08-23.64C391.3,97,402.36,87,414.49,87c11.15,0,16,5.37,17.53,9.52,0-2.58.09-6.83.28-8.22h5.15c-.1,4.47-.1,9-.1,13.42Zm-40.44-16.42c0,11.16,7.56,18.76,17.56,18.76,11,0,17.74-6.93,17.74-19.32,0-12.64-6.46-19.22-17.19-19.22C402.47,92.08,396.91,102.4,396.91,111.86Z" transform="translate(0 -6.11)"/><path class="cls-2" d="M463.41,100c0-3.92,0-8.2-.09-11.74h5.24c.19,1.76.28,6.19.28,10.06C470.8,93.19,476,87,486.48,87s17.89,6.53,17.89,19.73v28.13h-5.43v-27c0-9-3.41-15.79-13.21-15.79-11.26,0-16.89,8.85-16.89,21v21.82h-5.43Z" transform="translate(0 -6.11)"/></g></g></svg>