<svg xmlns="http://www.w3.org/2000/svg" viewBox="0 0 515.75 151.9"><defs><style>.cls-1{fill:#4a4a4a;}</style></defs><title>logoDark</title><g id="Layer_2" data-name="Layer 2"><g id="Layer_1-2" data-name="Layer 1"><path d="M77.58,85.57,51.36,136.62S45.08,79.71,36.53,62.14A112.89,112.89,0,0,1,54.81,34.51L62.4,51.76Z" transform="translate(0 -6.11)"/><path d="M96.9,109.71s7.22-10.87,4.64-34.75l10.13-7.26s5.46,1.86,6.38,14.35Z" transform="translate(0 -6.11)"/><path class="cls-1" d="M36.53,62.14C16,105,16.86,158,16.86,158c-37.94-73.13,0-146.27,0-146.27l38,22.77A112.89,112.89,0,0,0,36.53,62.14Z" transform="translate(0 -6.11)"/><path class="cls-1" d="M70.26,61.68C60.08,74.84,47,99.7,51.36,137.31l26.91-16.56S79,83.5,112.77,68.32L92.91,57.09A17.65,17.65,0,0,0,70.26,61.68Z" transform="translate(0 -6.11)"/><path class="cls-1" d="M96.9,109.71l18.63-10.35s6.89-14.48,27.59-13.1C143.12,86.26,115.53,62.11,96.9,109.71Z" transform="translate(0 -6.11)"/><path d="M180.78,30.78c0-2.76,0-5.52-.06-8.28h3.67a46.31,46.31,0,0,1,.13,5.36,11.43,11.43,0,0,1,10.7-6.26c5.09,0,8.48,2.57,9.95,6.65,1.73-3,4.75-6.65,11.17-6.65,6.11,0,11.19,3.48,11.19,12.92V54.6h-3.74V34.71c0-4.26-1.34-9.61-7.9-9.61-5.92,0-9.86,4.13-9.86,12V54.6h-3.74V34.34c0-4.22-1.41-9.24-8-9.24-7.12,0-9.8,5.71-9.8,12.66V54.6h-3.74Z" transform="translate(0 -6.11)"/><path d="M239.89,39.36c.38,7.43,5.28,12.77,12.73,12.77,5.68,0,9-2.54,11-6.28h3.75c-1.61,4.27-6,9.65-15.2,9.65-10.59,0-16.09-8.23-16.09-16.82,0-10.06,6.66-17.08,15.9-17.08,12,0,15.9,9.11,15.9,16.64v1.12Zm23.94-3.22C263.51,31.57,261.1,25,251.93,25c-7.28,0-11.21,4.77-11.91,11.18Z" transform="translate(0 -6.11)"/><path d="M306,6.11v39c0,3.14,0,6.35.07,9.49H302.5a49.14,49.14,0,0,1-.26-5.54c-1.55,2.88-4.55,6.44-12.42,6.44-9.49,0-15.54-7.11-15.54-16.69,0-10.41,7.6-17.21,16.19-17.21,8.24,0,10.87,4.13,11.77,5.85V6.11ZM278.16,38.74c0,6.39,3.95,13.32,12,13.32,9,0,12.36-5.73,12.36-13.7S299.81,25,290.46,25C282.17,25,278.16,31.92,278.16,38.74Z" transform="translate(0 -6.11)"/><path d="M317.54,6.11h3.75v6.77h-3.75Zm0,16.39h3.75V54.6h-3.75Z" transform="translate(0 -6.11)"/><path d="M358.6,47.25c0,2.54.19,6.58.32,7.35h-3.61a40.38,40.38,0,0,1-.38-5.29c-1.67,3.64-5.27,6.19-12.5,6.19-9.24,0-12.45-5.58-12.45-10.21,0-8.1,7.51-10.35,16.51-10.35h8.43v-2.1c0-4-1.72-8-9.73-8-7.13,0-8.85,3.3-9.61,6.86h-3.74c.44-4.42,3.33-10.15,13.41-10.15,10.41,0,13.35,5.23,13.35,10.5ZM354.92,38h-8.31c-8.58,0-12.84,1.79-12.84,7.06,0,3.81,2.74,7,9,7,10.16,0,12.17-6.34,12.17-12.21Z" transform="translate(0 -6.11)"/><path class="cls-1" d="M225.4,64.54V121.1c0,4.55,0,9.2.1,13.76h-5.15a76.34,76.34,0,0,1-.38-8c-2.24,4.18-6.59,9.34-18,9.34-13.77,0-22.54-10.32-22.54-24.2,0-15.1,11-25,23.48-25,11.94,0,15.76,6,17.06,8.48V64.54Zm-40.35,47.32c0,9.26,5.74,19.31,17.38,19.31,13,0,17.92-8.3,17.92-19.86S216.45,92,202.88,92C190.87,92,185.05,102,185.05,111.86Z" transform="translate(0 -6.11)"/><path class="cls-1" d="M252.64,112.75c.55,10.78,7.65,18.53,18.46,18.53,8.22,0,13-3.68,16-9.12h5.43c-2.34,6.19-8.69,14-22,14-15.36,0-23.34-11.93-23.34-24.39,0-14.59,9.66-24.77,23.06-24.77,17.43,0,23.06,13.21,23.06,24.13,0,.57,0,1,0,1.62Zm34.71-4.66c-.46-6.63-4-16.22-17.26-16.22-10.55,0-16.26,6.93-17.27,16.22Z" transform="translate(0 -6.11)"/><path class="cls-1" d="M316.49,120.89c1.94,6.72,7.56,10.5,17.17,10.5,10.42,0,14.38-3.78,14.38-9,0-4.61-2.51-8-15.73-9.49-15.6-1.78-19-7-19-12.89,0-5.44,4.49-13,18.69-13,15.94,0,19.8,8.64,20.18,13.61h-5.61c-.74-3.14-2.78-8.84-15-8.84-10.32,0-12.62,4.6-12.62,7.82,0,4.32,2.58,6.9,14.33,8.38,16.72,2.07,20.42,7,20.42,14.1,0,8.29-6.33,14.09-20.28,14.09s-20.81-5.94-22.48-15.27Z" transform="translate(0 -6.11)"/><path class="cls-1" d="M375.62,64.54h5.43v9.82h-5.43Zm0,23.76h5.43v46.56h-5.43Z" transform="translate(0 -6.11)"/><path class="cls-1" d="M448.73,128.28c0,17.95-4.9,28.71-23.82,28.71-16.94,0-20.75-10-21.68-15.66h5.61c1.57,5.71,5.45,10.78,16.36,10.78,15.87,0,18.2-10.24,18.2-23.71v-2.87c-2.89,6.37-8.61,10.25-18.65,10.25-12.95,0-22.08-10.16-22.08-23.64C402.67,97,413.74,87,425.87,87c11.14,0,15.95,5.37,17.53,9.52,0-2.58.09-6.83.27-8.22h5.15c-.09,4.47-.09,9-.09,13.42Zm-40.44-16.42c0,11.16,7.55,18.76,17.55,18.76,11,0,17.74-6.93,17.74-19.32,0-12.64-6.45-19.22-17.18-19.22C413.85,92.08,408.29,102.4,408.29,111.86Z" transform="translate(0 -6.11)"/><path class="cls-1" d="M474.79,100c0-3.92,0-8.2-.09-11.74h5.24c.18,1.76.28,6.19.28,10.06,2-5.17,7.15-11.36,17.64-11.36s17.89,6.53,17.89,19.73v28.13h-5.43v-27c0-9-3.42-15.79-13.22-15.79-11.26,0-16.88,8.85-16.88,21v21.82h-5.43Z" transform="translate(0 -6.11)"/></g></g></svg>