<svg width="54" height="56" viewBox="0 0 54 56" fill="none" xmlns="http://www.w3.org/2000/svg">
<path d="M29.2898 28.1348L19.4049 47.581C19.4049 47.581 17.0366 25.9042 13.8147 19.2163C15.5876 15.3932 17.9091 11.8549 20.7043 8.7153L23.5674 15.2813L29.2898 28.1348Z" fill="#381786"/>
<path d="M36.5721 37.3127C36.5721 37.3127 39.2955 33.1756 38.3247 24.0854L42.1435 21.321C42.1435 21.321 44.2021 22.0302 44.5496 26.785L36.5721 37.3127Z" fill="#381786"/>
<path d="M13.8147 19.2163C6.05639 35.532 6.39634 55.7065 6.39634 55.7065C-7.9078 27.8718 6.39634 0.0369873 6.39634 0.0369873L20.7043 8.71533C17.9091 11.8549 15.5876 15.3932 13.8147 19.2163V19.2163Z" fill="#5A1EC4"/>
<path d="M26.5286 19.0409C22.7023 24.0511 17.7542 33.4997 19.4049 47.8289L29.5503 41.526C29.5503 41.526 29.8109 27.3456 42.5551 21.5689L35.0688 17.2983C33.6755 16.5039 32.0454 16.2428 30.477 16.5628C28.9085 16.8828 27.5068 17.7626 26.5286 19.0409V19.0409Z" fill="#5A1EC4"/>
<path d="M36.5721 37.3127L43.5977 33.3739C43.5977 33.3739 46.1963 27.8603 54 28.3865C54 28.398 43.5977 19.2049 36.5721 37.3127Z" fill="#5A1EC4"/>
</svg>
