<svg xmlns="http://www.w3.org/2000/svg" viewBox="0 0 414 216"><defs><style>.cls-1{fill:#4552ff;}.cls-2{fill:#4b4b4b;}</style></defs><title>Asset 4</title><g id="Layer_2" data-name="Layer 2"><g id="Layer_1-2" data-name="Layer 1"><path class="cls-1" d="M252,216H193.33A13.33,13.33,0,0,1,180,202.67V0h0a72,72,0,0,1,72,72Z"/><rect class="cls-1" x="90" width="72" height="216" rx="13.33" ry="13.33"/><path class="cls-1" d="M72,216H70.5A70.49,70.49,0,0,1,0,145.5V0H58.67A13.33,13.33,0,0,1,72,13.33Z"/><path class="cls-2" d="M270,0h36A108,108,0,0,1,414,108v0A108,108,0,0,1,306,216H270a0,0,0,0,1,0,0V0A0,0,0,0,1,270,0Z"/></g></g></svg>