<svg xmlns="http://www.w3.org/2000/svg" viewBox="0 0 424.29 305"><defs><style>.cls-1,.cls-3{fill:#4552ff;}.cls-2,.cls-5{fill:#4b4b4b;}.cls-3{font-size:56.42px;font-family:Manrope-ExtraBold, Manrope;font-weight:700;letter-spacing:0.03em;}.cls-4{letter-spacing:0.08em;}.cls-5{letter-spacing:0.03em;}</style></defs><title>Asset 1</title><g id="Layer_2" data-name="Layer 2"><g id="Layer_1-2" data-name="Layer 1"><path class="cls-1" d="M255.5,216H196.83a13.33,13.33,0,0,1-13.33-13.33V0h0a72,72,0,0,1,72,72Z"/><rect class="cls-1" x="93.5" width="72" height="216" rx="13.33" ry="13.33"/><path class="cls-1" d="M75.5,216H74A70.49,70.49,0,0,1,3.5,145.5V0H62.17A13.33,13.33,0,0,1,75.5,13.33Z"/><path class="cls-2" d="M273.5,0h36a108,108,0,0,1,108,108v0a108,108,0,0,1-108,108h-36a0,0,0,0,1,0,0V0A0,0,0,0,1,273.5,0Z"/><text class="cls-3" transform="translate(0 287.37)">MEDIA<tspan class="cls-4" x="194.4" y="0"> </tspan><tspan class="cls-5" x="210.56" y="0">Design</tspan></text></g></g></svg>