<svg xmlns="http://www.w3.org/2000/svg" viewBox="0 0 436.14 306.35"><defs><style>.cls-1,.cls-3{fill:#4552ff;}.cls-2,.cls-5{fill:#4b4b4b;}.cls-3{font-size:56.42px;font-family:Manrope-ExtraBold, Manrope;font-weight:700;letter-spacing:0.03em;}.cls-4{letter-spacing:0.08em;}.cls-5{letter-spacing:0.03em;}</style></defs><title>Asset 3</title><g id="Layer_2" data-name="Layer 2"><g id="Layer_1-2" data-name="Layer 1"><path class="cls-1" d="M256.5,217.35H197.83A13.33,13.33,0,0,1,184.5,204V1.35h0a72,72,0,0,1,72,72Z"/><rect class="cls-1" x="94.5" y="1.35" width="72" height="216" rx="13.33" ry="13.33"/><path class="cls-1" d="M76.5,217.35H75a70.49,70.49,0,0,1-70.5-70.5V1.35H63.17A13.33,13.33,0,0,1,76.5,14.68Z"/><path class="cls-2" d="M273.5.35h36a108,108,0,0,1,108,108v0a108,108,0,0,1-108,108h-36a0,0,0,0,1,0,0V.35A0,0,0,0,1,273.5.35Z"/><text class="cls-3" transform="translate(0 288.72)">MEDIA<tspan class="cls-4" x="194.4" y="0"> </tspan><tspan class="cls-5" x="210.56" y="0">Design</tspan></text><path class="cls-2" d="M436.14,10.32A10.34,10.34,0,1,1,425.82,0,10.35,10.35,0,0,1,436.14,10.32Zm-18,0a7.64,7.64,0,1,0,7.64-7.61A7.65,7.65,0,0,0,418.18,10.32Zm8.44-4.93a3.2,3.2,0,0,1,1.5,6.05L430,15.16H428l-1.67-3.38h-2.3v3.38H422.4V5.39Zm-2.55,4.8h2.55a1.58,1.58,0,0,0,1.54-1.59A1.5,1.5,0,0,0,426.62,7h-2.55Z"/></g></g></svg>